<?xml version="1.0" encoding="utf-8"?>
<!-- Generator: Adobe Illustrator 24.0.2, SVG Export Plug-In . SVG Version: 6.00 Build 0)  -->
<svg version="1.1" id="Camada_1" xmlns="http://www.w3.org/2000/svg" xmlns:xlink="http://www.w3.org/1999/xlink" x="0px" y="0px"
	 viewBox="0 0 1125 2436" style="enable-background:new 0 0 1125 2436;" xml:space="preserve">
<style type="text/css">
	.st0{fill-rule:evenodd;clip-rule:evenodd;fill:#FF6F64;}
	.st1{fill:none;stroke:#FF6F64;stroke-width:0.216;stroke-miterlimit:22.9256;}
	.st2{fill-rule:evenodd;clip-rule:evenodd;fill:#A6A8AB;}
</style>
<path class="st0" d="M285.15,1086.88c-0.67,3.4-4.81,8.25-6.28,19.47c-4.93,37.72,23.36,48.64,24.75,50.91
	c1.65,0.38,2.69,1.17,4.08,1.8c1.31,0.59,2.68,1.12,4.22,1.65c12.27,4.17,16.3,4.31,29.42,6.67c8.53,1.53,19.41,4.53,26.2,9.44
	c1.57,1.13,1.77,1.61,1.47,4.27c-0.57,4.9-1.38,9.27-5.89,12.2c-5.83,3.78-22.22,2.75-26.43-5.03c-1.4-2.6-1.7-6.24-3.05-8.68
	c-0.65-1.18-1.94-2.51-3.05-2.81l-30.57-0.11c-1.75,1.69-20.2-0.6-21.19,1.82c-5.02,12.13,5.59,27.56,4.83,29.31l5.14,7.16
	c2.41,3.05,6.58,6.79,9.8,9.15c1.3,0.96,2.41,1.63,3.77,2.55c14.21,9.55,32.25,12.75,49.1,13.64c2.3,0.12,3.26-0.42,5.39-0.48
	c2.5-0.07,4.09-0.05,6.01-0.3c20.89-2.75,32.74-6.64,48.91-20.12c1.29-1.08,1.97-1.92,3.03-3.28l5.67-6.96
	c0,28.87,0.45,56.34,0.45,85.27c19.97,0,38.88-0.45,59.1-0.45c0-22,0.45-43.46,0.45-65.86c2.52,1.2,5.27,2.19,8.05,3.23
	c30.79,11.46,63.98,9.3,90.16-11.93c6.37-5.17,6.63-5.47,11.98-11.48c1.96-2.21,3.33-4.19,5.11-6.62l8.31-15.15
	c1.44,6.2,11.76,20.13,16.8,25.15c3.71,3.7,6.77,6.53,11.03,9.72c12.28,9.19,28.99,15.67,45.22,17.94
	c7.72,1.08,21.12,1.34,29.49,0.11c3.19-0.47,6.5-1.26,9.33-1.5c-1.23-1.07-5.46-2.17-7.74-3.09c-16.36-6.58-32.43-20.46-43.04-34.1
	l-5.04-5.78c-2.03-1.99-3.2-3.67-5.19-5.64c-6.37-6.32-14.65-13.01-20.07-18.28l-8.95-7.74c-3.49-2.7-14.04-13.54-14.59-18.35
	c-0.27-2.37-0.57-7.36,0.4-9.43c3.5-7.54,9.32-12.83,16.56-16.84c8.74-4.85,14.55-6.54,22.84-10.1c6.22-2.67,7.1-5.18,10.78-11.32
	c7.13-11.91,10.38-22.3,14.41-35.23c0.4-1.28,0.74-3.41,1.3-4.57c-14.7,0-37.69,11.13-49.28,20.65c-8.65,7.11-16.22,15.4-21.7,25.22
	c-1,1.79-1.5,4-3.01,5.11c-0.13-1.58-2.94-7.4-3.8-8.83c-7.53-12.6-9.16-15.03-20-25.12c-18.51-17.22-50.46-23.32-75.34-18.27
	c-17.34,3.51-23.05,10.1-35.3,16.58c-1.13-2.14-2.61-4.22-3.97-6.4c-1.36-2.18-2.77-4.17-4.15-6.23h-39.25l-0.64,7.93
	c-0.4,2.62-0.26,5.48-0.26,8.31c0.01,5.68-0.45,10.58-0.45,16.7l-1.17-1.99c-2.1-4.64-5.57-9.52-9.09-13.01
	c-9.45-9.4-18.93-14.85-32.33-18.65c-12.62-3.58-12.91-2.15-22.18-3.53c-6.09-0.92-18.01,0.55-23.16,1.58
	c-17.27,3.46-34.4,11.12-44.7,25.68C286.93,1084.12,286.18,1085.68,285.15,1086.88 M522.06,1107.16c21.14,0,38.27,17.89,38.27,39.95
	c0,22.07-17.13,39.95-38.27,39.95c-21.13,0-38.26-17.89-38.26-39.95C483.8,1125.05,500.93,1107.16,522.06,1107.16z M349.2,1099.07
	c11.63,0,15.13,1.33,18.81,10.96c0.65,1.71,1.76,4.83,3.75,4.83h48.72v35.64c-1.96-1.32-6.66-9.71-21.21-16.23
	c-22.34-10.03-59.51-6.92-62.99-20.95C334.18,1104.79,341.66,1099.07,349.2,1099.07z"/>
<path class="st0" d="M693.48,1108.3c21.13,0,38.26,17.89,38.26,39.95c0,22.07-17.13,39.95-38.26,39.95
	c-21.14,0-38.26-17.89-38.26-39.95C655.22,1126.18,672.35,1108.3,693.48,1108.3z M887.42,1095v-36.99l-15.79-0.9
	c-19.65,0-28.61,5.12-42.35,15.4c-1.38,1.03-3.44,3.12-5.02,3.54l-4.51-9.48c-0.85-1.73-3.94-8.11-5.87-8.11h-37.44
	c-1.83,0-1.41,1.67-1.38,3.58l0.03,35.21l-0.93-1.16c-17.4-25.01-46.99-41.47-80.57-41.47c-53.53,0-96.93,41.84-96.93,93.45
	c0,51.62,43.4,93.46,96.93,93.46c34.19,0,64.24-17.07,81.5-42.84v24.89c0,1.37-0.03,2.73-0.04,4.1c-0.01,1.68-0.35,3.12,1.39,3.12
	h58.65l0.45-43.76c0-12.52-2.08-51.96,3.3-63.47c4.78-10.23,18.7-9.05,29.19-9.61c2.11-0.11,2.77-0.48,5.41-0.46
	c3.16,0.03,8.03-1.03,10.28-0.55c1.05,0.23,2.99,2.35,8.68,2.35l21.2-0.45v54.13c0,19.82,1.28,36.31,12.43,51.18l4.54,4.93
	c21.78,20.25,57.03,15.62,85.44,15.62v-52.34h-20.76c-18.96,0-21.68-10.42-21.65-26.62c0.01-4.02-0.65-8.86-0.38-11.21l0.84-35.71
	h40.15c1.97,0,0.95-1.62,0.89-4.04l0.01-18.52c0-8.31-0.45-15.37-0.45-23.91h-41.96v-49.63l-9.93-0.45
	c-3.89,0-17.53,15.05-20.19,17.71l-18.5,19.4c-0.84,0.83-1.47,1.39-2.26,2.25l-6.87,7.56c-1.44,1.89-3.13,3.07-4.58,4.9L887.42,1095
	z"/>
<path class="st1" d="M693.48,1108.3c21.13,0,38.26,17.89,38.26,39.95c0,22.07-17.13,39.95-38.26,39.95
	c-21.14,0-38.26-17.89-38.26-39.95C655.22,1126.18,672.35,1108.3,693.48,1108.3z M887.42,1095v-36.99l-15.79-0.9
	c-19.65,0-28.61,5.12-42.35,15.4c-1.38,1.03-3.44,3.12-5.02,3.54l-4.51-9.48c-0.85-1.73-3.94-8.11-5.87-8.11h-37.44
	c-1.83,0-1.41,1.67-1.38,3.58l0.03,35.21l-0.93-1.16c-17.4-25.01-46.99-41.47-80.57-41.47c-53.53,0-96.93,41.84-96.93,93.45
	c0,51.62,43.4,93.46,96.93,93.46c34.19,0,64.24-17.07,81.5-42.84v24.89c0,1.37-0.03,2.73-0.04,4.1c-0.01,1.68-0.35,3.12,1.39,3.12
	h58.65l0.45-43.76c0-12.52-2.08-51.96,3.3-63.47c4.78-10.23,18.7-9.05,29.19-9.61c2.11-0.11,2.77-0.48,5.41-0.46
	c3.16,0.03,8.03-1.03,10.28-0.55c1.05,0.23,2.99,2.35,8.68,2.35l21.2-0.45v54.13c0,19.82,1.28,36.31,12.43,51.18l4.54,4.93
	c21.78,20.25,57.03,15.62,85.44,15.62v-52.34h-20.76c-18.96,0-21.68-10.42-21.65-26.62c0.01-4.02-0.65-8.86-0.38-11.21l0.84-35.71
	h40.15c1.97,0,0.95-1.62,0.89-4.04l0.01-18.52c0-8.31-0.45-15.37-0.45-23.91h-41.96v-49.63l-9.93-0.45
	c-3.89,0-17.53,15.05-20.19,17.71l-18.5,19.4c-0.84,0.83-1.47,1.39-2.26,2.25l-6.87,7.56c-1.44,1.89-3.13,3.07-4.58,4.9L887.42,1095
	z"/>
<path class="st2" d="M228.9,1109.33c21.14,0,38.26,17.89,38.26,39.95c0,22.07-17.13,39.96-38.26,39.96
	c-21.13,0-38.26-17.89-38.26-39.96C190.64,1127.22,207.77,1109.33,228.9,1109.33 M108.28,978.45h65.77v83.11
	c15.5-10.55,34.01-16.69,53.91-16.69c54.49,0,98.67,46.01,98.67,102.76c0,10.07-1.4,19.81-3.99,29l-41.85,0.21
	c-3.88,11.08-1.25,21.15,3.54,30.66l2.48,3.76c2.9,3.45,6.6,7.02,9.5,10.47c-17.73,17.75-41.82,28.66-68.35,28.66
	c-23.58,0-45.22-8.62-62.19-22.99l-3.29-2.06l-10.57,14.45h-43.63V978.45z"/>
<g>
</g>
<g>
</g>
<g>
</g>
<g>
</g>
<g>
</g>
<g>
</g>
<g>
</g>
<g>
</g>
<g>
</g>
<g>
</g>
<g>
</g>
</svg>
